<?xml version="1.0" standalone="no"?>
<!DOCTYPE svg PUBLIC "-//W3C//DTD SVG 20010904//EN"
 "http://www.w3.org/TR/2001/REC-SVG-20010904/DTD/svg10.dtd">
<svg version="1.0" xmlns="http://www.w3.org/2000/svg"
 width="500.000000pt" height="500.000000pt" viewBox="0 0 500.000000 500.000000"
 preserveAspectRatio="xMidYMid meet">

<g transform="translate(0.000000,500.000000) scale(0.100000,-0.100000)"
fill="#000000" stroke="none">
<path d="M1230 1896 c0 -2 7 -7 16 -10 8 -3 12 -2 9 4 -6 10 -25 14 -25 6z"/>
<path d="M2637 1889 c7 -7 15 -10 18 -7 3 3 -2 9 -12 12 -14 6 -15 5 -6 -5z"/>
<path d="M3940 1885 c7 -9 15 -13 17 -11 7 7 -7 26 -19 26 -6 0 -6 -6 2 -15z"/>
<path d="M740 1783 c0 -74 3 -103 10 -93 13 20 13 200 0 200 -6 0 -10 -42 -10
-107z"/>
<path d="M915 1795 c0 -56 4 -94 10 -92 13 5 18 71 10 134 -10 83 -20 62 -20
-42z"/>
<path d="M1410 1801 c0 -50 5 -93 10 -96 6 -4 10 28 10 89 0 57 -4 96 -10 96
-6 0 -10 -36 -10 -89z"/>
<path d="M1538 1795 c-2 -79 -1 -95 12 -95 12 0 15 17 15 95 0 66 -4 95 -12
95 -8 0 -13 -30 -15 -95z"/>
<path d="M1690 1879 c0 -5 5 -7 10 -4 6 3 10 8 10 11 0 2 -4 4 -10 4 -5 0 -10
-5 -10 -11z"/>
<path d="M1760 1812 c0 -44 -3 -87 -6 -96 -4 -11 0 -16 13 -16 17 0 18 6 11
91 -4 50 -9 94 -12 97 -4 3 -6 -31 -6 -76z"/>
<path d="M1970 1795 c0 -69 3 -95 13 -95 9 0 11 24 9 95 -2 52 -8 95 -13 95
-5 0 -9 -43 -9 -95z"/>
<path d="M2105 1795 c0 -57 4 -95 10 -95 6 0 10 38 10 95 0 57 -4 95 -10 95
-6 0 -10 -38 -10 -95z"/>
<path d="M2340 1880 c0 -5 11 -40 26 -77 14 -38 23 -76 20 -85 -3 -13 2 -18
16 -18 15 0 18 4 13 18 -4 9 -20 52 -37 95 -28 72 -38 90 -38 67z"/>
<path d="M2878 1795 c-2 -71 0 -95 10 -95 9 0 12 26 12 95 0 52 -4 95 -9 95
-5 0 -11 -43 -13 -95z"/>
<path d="M3185 1795 c0 -52 4 -94 9 -92 12 4 13 187 1 187 -6 0 -10 -38 -10
-95z"/>
<path d="M3365 1795 c0 -73 3 -95 14 -95 8 0 11 6 7 16 -3 9 -6 51 -6 95 0 43
-3 79 -7 79 -5 0 -8 -43 -8 -95z"/>
<path d="M3455 1845 c0 -33 3 -41 13 -33 16 14 16 53 -1 66 -10 8 -12 1 -12
-33z"/>
<path d="M3615 1800 c0 -49 3 -90 8 -90 4 0 7 41 7 90 0 50 -3 90 -7 90 -5 0
-8 -40 -8 -90z"/>
<path d="M4105 1800 c0 -53 4 -90 10 -90 6 0 10 37 10 90 0 53 -4 90 -10 90
-6 0 -10 -37 -10 -90z"/>
<path d="M4240 1795 c0 -57 4 -95 10 -95 6 0 10 38 10 95 0 57 -4 95 -10 95
-6 0 -10 -38 -10 -95z"/>
<path d="M3015 1850 c18 -34 19 -72 4 -103 -10 -21 -9 -21 10 2 12 13 21 34
21 47 0 30 -19 72 -36 78 -12 4 -11 0 1 -24z"/>
<path d="M1161 1848 c-1 -23 7 -32 48 -53 33 -16 51 -32 54 -47 4 -16 5 -14 4
6 -2 24 -11 35 -46 56 -24 14 -48 34 -52 45 -7 17 -8 16 -8 -7z"/>
<path d="M2581 1850 c-2 -39 94 -150 129 -149 9 0 6 5 -7 11 -27 13 -29 27 -8
54 18 24 19 34 0 34 -8 0 -12 -6 -10 -12 3 -7 0 -20 -5 -28 -9 -12 -17 -8 -50
28 -21 24 -41 53 -43 65 -4 20 -4 20 -6 -3z"/>
<path d="M3862 1835 c2 -12 19 -28 45 -39 23 -11 46 -29 52 -40 10 -20 11 -20
8 4 -1 19 -13 30 -45 46 -24 11 -48 27 -53 35 -8 11 -9 10 -7 -6z"/>
<path d="M985 1800 c3 -5 8 -10 11 -10 2 0 4 5 4 10 0 6 -5 10 -11 10 -5 0 -7
-4 -4 -10z"/>
<path d="M3685 1800 c3 -5 8 -10 11 -10 2 0 4 5 4 10 0 6 -5 10 -11 10 -5 0
-7 -4 -4 -10z"/>
<path d="M2550 1752 c0 -17 4 -34 10 -37 6 -4 7 6 3 27 -8 44 -13 48 -13 10z"/>
<path d="M2272 1725 c-10 -21 -9 -25 3 -25 9 0 15 10 15 25 0 14 -2 25 -3 25
-2 0 -9 -11 -15 -25z"/>
<path d="M1150 1726 c0 -8 7 -17 16 -20 23 -9 24 -4 2 17 -14 13 -18 14 -18 3z"/>
<path d="M3850 1720 c0 -6 7 -13 15 -17 24 -9 27 1 5 15 -13 8 -20 8 -20 2z"/>
</g>
</svg>
